<?xml version="1.0" standalone="no"?>
<!DOCTYPE svg PUBLIC "-//W3C//DTD SVG 20010904//EN"
 "http://www.w3.org/TR/2001/REC-SVG-20010904/DTD/svg10.dtd">
<svg version="1.0" xmlns="http://www.w3.org/2000/svg"
 width="362.000000pt" height="224.000000pt" viewBox="0 0 362.000000 224.000000"
 preserveAspectRatio="xMidYMid meet">

<g transform="translate(0.000000,224.000000) scale(0.100000,-0.100000)"
fill="#000000" stroke="none">
<path d="M1805 1694 c-70 -15 -115 -31 -150 -52 -150 -92 -173 -199 -82 -387
45 -94 48 -103 54 -207 7 -121 15 -138 66 -138 39 1 116 15 124 23 3 4 -1 21
-10 39 -9 19 -19 78 -23 134 -7 100 -7 101 17 107 50 14 67 8 90 -30 39 -64
46 -68 120 -68 86 0 98 10 74 62 -10 21 -21 54 -25 73 -5 34 -7 35 -50 34 -48
-1 -203 -21 -233 -30 -19 -6 -77 48 -77 71 0 7 21 15 55 19 144 17 245 106
245 216 0 101 -81 157 -195 134z m28 -81 c23 -44 -2 -113 -63 -174 -59 -59
-90 -65 -90 -16 1 44 22 125 43 164 31 59 87 72 110 26z"/>
</g>
</svg>
